<mxfile host="app.diagrams.net" modified="2023-04-30T02:44:21.522Z" agent="Mozilla/5.0 (Windows NT 10.0; Win64; x64) AppleWebKit/537.36 (KHTML, like Gecko) Chrome/112.0.0.0 Safari/537.36" etag="tCYOyP0_GjWds_e-EG4e" version="21.1.2" type="device">
  <diagram name="PÃ¡gina-1" id="oCkloaQxV4EskDQEyjsh">
    <mxGraphModel dx="1434" dy="707" grid="1" gridSize="10" guides="1" tooltips="1" connect="1" arrows="1" fold="1" page="1" pageScale="1" pageWidth="827" pageHeight="1169" math="0" shadow="0">
      <root>
        <mxCell id="0" />
        <mxCell id="1" parent="0" />
        <mxCell id="ZpTO1qy3zPeGpJuc3iYb-2" value="External EC2 Data" style="shape=mxgraph.cisco.misc.page_icon;html=1;pointerEvents=1;dashed=0;fillColor=#036897;strokeColor=#ffffff;strokeWidth=2;verticalLabelPosition=bottom;verticalAlign=top;align=center;outlineConnect=0;fontFamily=Verdana;fontStyle=0;fontSize=11;" vertex="1" parent="1">
          <mxGeometry x="195" y="60" width="48" height="69" as="geometry" />
        </mxCell>
        <mxCell id="ZpTO1qy3zPeGpJuc3iYb-8" value="AWS Cloud" style="points=[[0,0],[0.25,0],[0.5,0],[0.75,0],[1,0],[1,0.25],[1,0.5],[1,0.75],[1,1],[0.75,1],[0.5,1],[0.25,1],[0,1],[0,0.75],[0,0.5],[0,0.25]];outlineConnect=0;html=1;whiteSpace=wrap;fontSize=11;fontStyle=0;container=1;pointerEvents=0;collapsible=0;recursiveResize=0;shape=mxgraph.aws4.group;grIcon=mxgraph.aws4.group_aws_cloud_alt;strokeColor=#6c8ebf;fillColor=#dae8fc;verticalAlign=top;align=left;spacingLeft=30;dashed=0;fontFamily=Verdana;" vertex="1" parent="1">
          <mxGeometry x="130" y="210" width="402" height="180" as="geometry" />
        </mxCell>
        <mxCell id="ZpTO1qy3zPeGpJuc3iYb-4" value="API" style="sketch=0;points=[[0,0,0],[0.25,0,0],[0.5,0,0],[0.75,0,0],[1,0,0],[0,1,0],[0.25,1,0],[0.5,1,0],[0.75,1,0],[1,1,0],[0,0.25,0],[0,0.5,0],[0,0.75,0],[1,0.25,0],[1,0.5,0],[1,0.75,0]];outlineConnect=0;fontColor=#232F3E;gradientColor=#FF4F8B;gradientDirection=north;fillColor=#BC1356;strokeColor=#ffffff;dashed=0;verticalLabelPosition=bottom;verticalAlign=top;align=center;html=1;fontSize=11;fontStyle=0;aspect=fixed;shape=mxgraph.aws4.resourceIcon;resIcon=mxgraph.aws4.api_gateway;fontFamily=Verdana;" vertex="1" parent="1">
          <mxGeometry x="180" y="260" width="78" height="78" as="geometry" />
        </mxCell>
        <mxCell id="ZpTO1qy3zPeGpJuc3iYb-1" value="Lambda" style="sketch=0;points=[[0,0,0],[0.25,0,0],[0.5,0,0],[0.75,0,0],[1,0,0],[0,1,0],[0.25,1,0],[0.5,1,0],[0.75,1,0],[1,1,0],[0,0.25,0],[0,0.5,0],[0,0.75,0],[1,0.25,0],[1,0.5,0],[1,0.75,0]];outlineConnect=0;fontColor=#232F3E;gradientColor=#F78E04;gradientDirection=north;fillColor=#D05C17;strokeColor=#ffffff;dashed=0;verticalLabelPosition=bottom;verticalAlign=top;align=center;html=1;fontSize=11;fontStyle=0;aspect=fixed;shape=mxgraph.aws4.resourceIcon;resIcon=mxgraph.aws4.lambda;fontFamily=Verdana;" vertex="1" parent="1">
          <mxGeometry x="405" y="260" width="78" height="78" as="geometry" />
        </mxCell>
        <mxCell id="ZpTO1qy3zPeGpJuc3iYb-6" style="edgeStyle=orthogonalEdgeStyle;rounded=0;orthogonalLoop=1;jettySize=auto;html=1;targetPerimeterSpacing=20;sourcePerimeterSpacing=20;startArrow=classic;startFill=1;fontFamily=Verdana;fontStyle=0;fontSize=11;" edge="1" parent="1" source="ZpTO1qy3zPeGpJuc3iYb-1" target="ZpTO1qy3zPeGpJuc3iYb-4">
          <mxGeometry relative="1" as="geometry" />
        </mxCell>
        <mxCell id="ZpTO1qy3zPeGpJuc3iYb-7" style="edgeStyle=orthogonalEdgeStyle;rounded=0;orthogonalLoop=1;jettySize=auto;html=1;targetPerimeterSpacing=20;sourcePerimeterSpacing=20;startArrow=classic;startFill=1;fontFamily=Verdana;fontStyle=0;fontSize=11;" edge="1" parent="1" source="ZpTO1qy3zPeGpJuc3iYb-1" target="ZpTO1qy3zPeGpJuc3iYb-2">
          <mxGeometry relative="1" as="geometry">
            <Array as="points">
              <mxPoint x="440" y="95" />
            </Array>
          </mxGeometry>
        </mxCell>
      </root>
    </mxGraphModel>
  </diagram>
</mxfile>
